<?xml version="1.0" encoding="UTF-8" standalone="no"?><!DOCTYPE svg PUBLIC "-//W3C//DTD SVG 1.1//EN" "http://www.w3.org/Graphics/SVG/1.1/DTD/svg11.dtd"><svg width="100%" height="100%" viewBox="0 0 123 123" version="1.1" xmlns="http://www.w3.org/2000/svg" xmlns:xlink="http://www.w3.org/1999/xlink" xml:space="preserve" xmlns:serif="http://www.serif.com/" style="fill-rule:evenodd;clip-rule:evenodd;stroke-linejoin:round;stroke-miterlimit:2;"><path d="M104.683,36.794c-0.059,-3.61 -2.935,-6.442 -6.586,-6.509c-3.61,0.059 -6.568,2.977 -6.509,6.587l0.103,46.168c-0.044,0.293 -0.423,0.417 -0.631,0.205l-27.108,-37.372c-2.079,-2.952 -6.188,-3.568 -9.14,-1.49c-2.911,2.205 -3.568,6.188 -1.49,9.14l39.625,54.372c1.745,2.357 4.547,3.247 7.323,2.343c2.65,-0.863 4.391,-3.233 4.413,-6.166l0,-67.278Zm-38.919,5.485l16.845,23.773l-0,-21.811c-0,-17.589 -14.357,-31.946 -31.952,-31.946l-0.677,0c-17.596,0 -31.783,14.357 -31.783,31.946l-0,57.853c-0,4.737 3.715,8.436 8.276,8.436c4.56,0 8.276,-3.699 8.276,-8.436l-0,-57.853c-0,-8.458 6.938,-15.394 15.231,-15.394l0.677,0c7.797,0 14.157,5.889 15.107,13.432Zm0.123,32.828l0,26.987c0,4.737 3.716,8.436 8.277,8.436c4.729,0 8.445,-3.699 8.445,-8.436l-0,-3.684l-16.722,-23.303Z" style="fill:url(#_Linear1);fill-rule:nonzero;"/><defs><linearGradient id="_Linear1" x1="0" y1="0" x2="1" y2="0" gradientUnits="userSpaceOnUse" gradientTransform="matrix(79.3336,79.3336,-79.3336,79.3336,25.3497,24.0543)"><stop offset="0" style="stop-color:#f9d423;stop-opacity:1"/><stop offset="1" style="stop-color:#e14fad;stop-opacity:1"/></linearGradient></defs></svg>